<svg width="24" height="24" viewBox="0 0 24 24" fill="none" xmlns="http://www.w3.org/2000/svg">
  <circle cx="12" cy="12" r="3" stroke="currentColor" stroke-width="2"/>
  <path d="M19.4 15A1.65 1.65 0 0019 13.82L20.25 12.82A1.65 1.65 0 0020.25 11.18L19 10.18A1.65 1.65 0 0019.4 9A1.65 1.65 0 0021.05 7.35V4.65A1.65 1.65 0 0019.4 3A1.65 1.65 0 0019 4.18L17.75 3.18A1.65 1.65 0 0016.25 3.18L15 4.18A1.65 1.65 0 0014.6 3A1.65 1.65 0 0012.95 4.65V7.35A1.65 1.65 0 0014.6 9A1.65 1.65 0 0015 10.18L13.75 11.18A1.65 1.65 0 0013.75 12.82L15 13.82A1.65 1.65 0 0014.6 15A1.65 1.65 0 0012.95 16.65V19.35A1.65 1.65 0 0014.6 21A1.65 1.65 0 0015 19.82L16.25 20.82A1.65 1.65 0 0017.75 20.82L19 19.82A1.65 1.65 0 0019.4 21A1.65 1.65 0 0021.05 19.35V16.65A1.65 1.65 0 0019.4 15Z" stroke="currentColor" stroke-width="2" stroke-linecap="round" stroke-linejoin="round"/>
</svg>